{"title":"Argo.2012.DVDSCR.XviD.AC3-ADTRG","uid":8009971,"size":1910444371,"categoryP":"video","categoryS":"movies","magnet":"?xt=urn:btih:4f60b60358ba3bc9632e687e2e948bd3e6f2f393&amp;dn=Argo.2012.DVDSCR.XviD.AC3-ADTRG&amp;tr=udp%3A%2F%2Ftracker.openbittorrent.com%3A80&amp;tr=udp%3A%2F%2Fopen.demonii.com%3A1337&amp;tr=udp%3A%2F%2Ftracker.coppersurfer.tk%3A6969&amp;tr=udp%3A%2F%2Fexodus.desync.com%3A6969","seeders":1,"leechers":0,"uploader":"Acesn8s","files":-1,"time":1357973694,"description":"Argo.2012.DVDSCR.XviD.Ac3-ADTRG\n\nGeneral &lt;a href=&quot;\nhttp://www.imdb.com/title/tt1024648/&quot; rel=&quot;nofollow&quot; target=&quot;_NEW&quot;&gt;\nhttp://www.imdb.com/title/tt1024648/&lt;/a&gt;\nComplete name                            : Argo 2012 DVDscr Xvid Ac3-ADTRG.avi\nSource                                   : Argo 2012 DVDSCR XviD-EDAW2013\nFormat                                   : AVI\nFormat/Info                              : Audio Video Interleave\nFile size                                : 1.76 GiB\nDuration                                 : 2h 0mn\nOverall bit rate                         : 2 096 Kbps\nWriting application                      : VirtualDubMod 1.5.10.2 (build 2540/release)\nWriting library                          : VirtualDubMod build 2540/release\n\nVideo\nID                                       : 0\nFormat                                   : MPEG-4 Visual\nFormat profile                           : Advanced Simple@L5\nFormat settings, BVOP                    : 2\nFormat settings, QPel                    : No\nFormat settings, GMC                     : No warppoints\nFormat settings, Matrix                  : Default (H.263)\nMuxing mode                              : Packed bitstream\nCodec ID                                 : XVID\nCodec ID/Hint                            : XviD\nDuration                                 : 2h 0mn\nBit rate                                 : 1 700 Kbps\nWidth                                    : 720 pixels\nHeight                                   : 400 pixels\nDisplay aspect ratio                     : 16:9\nFrame rate                               : 29.970 fps\nColor space                              : YUV\nChroma subsampling                       : 4:2:0\nBit depth                                : 8 bits\nScan type                                : Progressive\nCompression mode                         : Lossy\nBits/(Pixel*Frame)                       : 0.197\nStream size                              : 1.43 GiB (81%)\nWriting library                          : XviD 64\n\nAudio\nID                                       : 1\nFormat                                   : AC-3\nFormat/Info                              : Audio Coding 3\nMode extension                           : CM (complete main)\nCodec ID                                 : 2000\nDuration                                 : 2h 0mn\nBit rate mode                            : Constant\nBit rate                                 : 384 Kbps\nChannel(s)                               : 2 channels\nChannel positions                        : Front: L R\nSampling rate                            : 48.0 KHz\nBit depth                                : 16 bits\nCompression mode                         : Lossy\nDelay relative to video                  : 22ms\nStream size                              : 330 MiB (18%)\nAlignment                                : Split accross interleaves\nInterleave, duration                     : 33 ms (1.00 video frame)\nInterleave, preload duration             : 500 ms\n\nNotes :\n\nFIXED !\n\nenjoy until better arrives :)\n\nScreens :\n &lt;a href=&quot;\nhttp://www.shotpix.com/images/39851979011614149676.jpeg&quot; rel=&quot;nofollow&quot; target=&quot;_NEW&quot;&gt;\nhttp://www.shotpix.com/images/39851979011614149676.jpeg&lt;/a&gt;","torrent":{"xt":"urn:btih:4f60b60358ba3bc9632e687e2e948bd3e6f2f393","amp;dn":"Argo.2012.DVDSCR.XviD.AC3-ADTRG","amp;tr":["udp%3A%2F%2Ftracker.openbittorrent.com%3A80","udp%3A%2F%2Fopen.demonii.com%3A1337","udp%3A%2F%2Ftracker.coppersurfer.tk%3A6969","udp%3A%2F%2Fexodus.desync.com%3A6969"],"infoHash":"4f60b60358ba3bc9632e687e2e948bd3e6f2f393","infoHashBuffer":{"type":"Buffer","data":[79,96,182,3,88,186,59,201,99,46,104,126,46,148,139,211,230,242,243,147]},"announce":[],"urlList":[]}}